<svg width="96" height="96" viewBox="0 0 96 96" fill="none" xmlns="http://www.w3.org/2000/svg" role="img" aria-labelledby="title desc">
  <title id="title">キャリタイプ ロゴアイコン</title>
  <desc id="desc">4枚の診断カードとコンパスを組み合わせたブランドマーク</desc>
  <rect width="96" height="96" rx="24" fill="#FFFDF7"/>
  <g filter="url(#softShadow)">
    <path d="M19 14H43.5V42.5H14V19C14 16.2386 16.2386 14 19 14Z" fill="#102247"/>
    <path d="M52.5 14H77C79.7614 14 82 16.2386 82 19V42.5H52.5V14Z" fill="#2667DB"/>
    <path d="M14 52.5H43.5V82H19C16.2386 82 14 79.7614 14 77V52.5Z" fill="#F45F54"/>
    <path d="M52.5 52.5H82V77C82 79.7614 79.7614 82 77 82H52.5V52.5Z" fill="#F7C734"/>
    <path d="M48 14V82" stroke="#FFFDF7" stroke-width="6" stroke-linecap="round"/>
    <path d="M14 48H82" stroke="#FFFDF7" stroke-width="6" stroke-linecap="round"/>
    <circle cx="48" cy="48" r="25.5" fill="#FFFDF7"/>
    <path d="M48 23.5V31.2" stroke="#2A5FD3" stroke-width="2.8" stroke-linecap="round"/>
    <path d="M48 64.8V72.5" stroke="#F45F54" stroke-width="2.8" stroke-linecap="round"/>
    <path d="M23.5 48H31.2" stroke="#F45F54" stroke-width="2.8" stroke-linecap="round"/>
    <path d="M64.8 48H72.5" stroke="#2A5FD3" stroke-width="2.8" stroke-linecap="round"/>
    <path d="M36.4 59.8L43.4 43.4L59.8 36.4L52.8 52.8L36.4 59.8Z" fill="#102247" stroke="#102247" stroke-linejoin="round"/>
    <circle cx="48.1" cy="48.1" r="4.2" fill="#FFFDF7"/>
  </g>
  <defs>
    <filter id="softShadow" x="9" y="10" width="78" height="80" filterUnits="userSpaceOnUse" color-interpolation-filters="sRGB">
      <feDropShadow dx="0" dy="3" stdDeviation="2.5" flood-color="#102247" flood-opacity="0.13"/>
    </filter>
  </defs>
</svg>
